<?xml version="1.0" encoding="UTF-8" standalone="no"?>
<!DOCTYPE svg PUBLIC "-//W3C//DTD SVG 1.1//EN" "http://www.w3.org/Graphics/SVG/1.1/DTD/svg11.dtd">
<svg width="100%" height="100%" viewBox="0 0 1000 980" version="1.1" xmlns="http://www.w3.org/2000/svg" xmlns:xlink="http://www.w3.org/1999/xlink" xml:space="preserve" xmlns:serif="http://www.serif.com/" style="fill-rule:evenodd;clip-rule:evenodd;stroke-linejoin:round;stroke-miterlimit:2;">
    <g transform="matrix(1,0,0,1,-500,-200)">
        <g id="Handstamp-Logo" serif:id="Handstamp Logo">
            <g transform="matrix(1.818182,0,0,1.818182,0,-527.272727)">
                <path d="M382.44,785C396.015,784.826 460.442,781.781 492.972,740.42C518.158,708.399 546.054,661.514 472.511,588.073C452.433,568.145 440,540.524 440,510C440,449.249 446.349,400 550,400L550,785L382.44,785Z"/>
            </g>
            <g transform="matrix(-1.818182,0,0,1.818182,2000,-527.272727)">
                <path d="M382.44,785C396.015,784.826 460.442,781.781 492.972,740.42C518.158,708.399 546.054,661.514 472.511,588.073C452.433,568.145 440,540.524 440,510C440,449.249 446.349,400 550,400L550,785L382.44,785Z"/>
            </g>
            <g transform="matrix(1.014187,0,0,1.246745,-52.177633,-84.443042)">
                <path d="M1481.165,789.611C1494.24,789.611 1506.78,793.836 1516.026,801.357C1525.271,808.878 1530.465,819.079 1530.465,829.715C1530.465,867.684 1530.465,921.796 1530.465,942.008C1530.465,946.438 1526.051,950.029 1520.605,950.029C1424.167,950.029 650.752,950.029 554.314,950.029C548.868,950.029 544.454,946.438 544.454,942.008C544.454,921.796 544.454,867.684 544.454,829.715C544.454,819.079 549.648,808.878 558.893,801.357C568.139,793.836 580.679,789.611 593.754,789.611C762.067,789.611 1312.852,789.611 1481.165,789.611Z"/>
            </g>
            <g transform="matrix(1,0,0,0.893731,0,138.620066)">
                <path d="M1489.993,1120.449C1492.647,1120.449 1495.192,1121.628 1497.069,1123.728C1498.946,1125.828 1500,1128.676 1500,1131.646L1500,1154.008C1500,1156.977 1498.946,1159.825 1497.069,1161.925C1495.192,1164.025 1492.647,1165.205 1489.993,1165.205L510.007,1165.205C507.353,1165.205 504.808,1164.025 502.931,1161.925C501.054,1159.825 500,1156.977 500,1154.008L500,1131.646C500,1128.676 501.054,1125.828 502.931,1123.728C504.808,1121.628 507.353,1120.449 510.007,1120.449L1489.993,1120.449Z"/>
            </g>
        </g>
    </g>
</svg>
