<?xml version="1.0" encoding="UTF-8" standalone="no"?>
<!DOCTYPE svg PUBLIC "-//W3C//DTD SVG 1.1//EN" "http://www.w3.org/Graphics/SVG/1.1/DTD/svg11.dtd">
<svg width="100%" height="100%" viewBox="0 0 2560 1440" version="1.1" xmlns="http://www.w3.org/2000/svg" xmlns:xlink="http://www.w3.org/1999/xlink" xml:space="preserve" xmlns:serif="http://www.serif.com/" style="fill-rule:evenodd;clip-rule:evenodd;stroke-linecap:round;stroke-linejoin:round;stroke-miterlimit:1.5;">
    <g transform="matrix(1.22848,0,0,1.13137,-416.163,-65.8186)">
        <path d="M648.087,797.695C648.087,785.974 652.375,774.733 660.007,766.445C667.64,758.157 677.993,753.501 688.787,753.501L1193.47,753.501C1204.27,753.501 1214.62,748.845 1222.25,740.557C1229.89,732.269 1234.17,721.028 1234.17,709.307L1234.17,679.844C1234.17,668.123 1229.89,656.882 1222.25,648.594C1214.62,640.305 1204.27,635.649 1193.47,635.649L688.787,635.649C677.993,635.649 667.64,630.993 660.007,622.705C652.375,614.417 648.087,603.176 648.087,591.455L648.087,561.992C648.087,550.271 652.375,539.03 660.007,530.742C667.64,522.454 677.993,517.798 688.787,517.798C899.222,517.798 1862.17,517.798 2072.61,517.798C2083.4,517.798 2093.75,522.454 2101.39,530.742C2109.02,539.03 2113.31,550.271 2113.31,561.992L2113.31,827.158C2113.31,838.879 2109.02,850.12 2101.39,858.408C2093.75,866.696 2083.4,871.353 2072.61,871.353C1862.17,871.353 899.222,871.353 688.787,871.353C677.993,871.353 667.64,866.696 660.007,858.408C652.375,850.12 648.087,838.879 648.087,827.158C648.087,817.524 648.087,807.329 648.087,797.695Z" style="fill:none;stroke:black;stroke-width:16.94px;"/>
    </g>
    <g transform="matrix(1,0,0,1,0,-10)">
        <path d="M486.326,232.341L1280,523.874" style="fill:none;stroke:black;stroke-width:31px;"/>
    </g>
    <g transform="matrix(1,0,0,1,116.259,-79.2018)">
        <circle cx="370.067" cy="311.542" r="106.326" style="stroke:black;stroke-width:20px;"/>
    </g>
</svg>
